<svg xmlns="http://www.w3.org/2000/svg" width="32" height="32"
     viewBox="0 0 8.467 8.467" id="seat">
  <g fill="#3b3c3d">
    <path
      d="M3.638.566a.6.6 0 0 0-.595.525l-.034.271a.234.234 0 0 0 .232.263h.265v.33h.264v-.33h.926v.33h.265v-.33h.265c.14 0 .249-.123.232-.263l-.035-.27A.6.6 0 0 0 4.83.565Z"></path>
    <path fill-rule="evenodd"
          d="M3.748 2.212a1.638 1.638 0 0 0-1.611 1.346l-.157.86a7.938 7.938 0 0 0-.128 1.42v.393c.093.017.184.046.27.09l.105.052a.59.59 0 0 0 .387.05l.185-.04c.01-.003.022-.004.033-.006v-.394a7.564 7.564 0 0 1 .194-1.7l.126-.548a.56.56 0 0 1 .547-.434h1.07a.56.56 0 0 1 .545.434l.126.547a7.564 7.564 0 0 1 .194 1.701v.394c.011.003.023.004.034.006l.184.04a.59.59 0 0 0 .387-.05l.154-.077a.788.788 0 0 1 .222-.068v-.39a7.938 7.938 0 0 0-.129-1.42l-.156-.86a1.638 1.638 0 0 0-1.612-1.346z"></path>
    <path fill-rule="evenodd"
          d="M1.314 6.446a.132.132 0 0 0-.123.132 1.323 1.323 0 0 0 1.323 1.323h3.44a1.323 1.323 0 0 0 1.322-1.323.132.132 0 0 0-.132-.132h-.397a.56.56 0 0 0-.25.059l-.154.077a.82.82 0 0 1-.54.068l-.184-.04a6.615 6.615 0 0 0-2.772 0l-.184.04a.82.82 0 0 1-.54-.068l-.106-.054a.785.785 0 0 0-.35-.082h-.344a.132.132 0 0 0-.01 0zm1.859.395a.132.132 0 0 1 .134.134v.53a.132.132 0 1 1-.264 0v-.53a.132.132 0 0 1 .13-.134zm.53 0a.132.132 0 0 1 .133.134v.53a.132.132 0 1 1-.264 0v-.53a.132.132 0 0 1 .13-.134zm.528 0a.132.132 0 0 1 .135.134v.53a.132.132 0 1 1-.265 0v-.53a.132.132 0 0 1 .13-.134zm.53 0a.132.132 0 0 1 .134.134v.53a.132.132 0 1 1-.265 0v-.53a.132.132 0 0 1 .13-.134zm.529 0a.132.132 0 0 1 .134.134v.53a.132.132 0 1 1-.265 0v-.53a.132.132 0 0 1 .13-.134zm-2.646.132a.132.132 0 0 1 .134.134v.397a.132.132 0 1 1-.264 0v-.397a.132.132 0 0 1 .13-.134zm3.175 0a.132.132 0 0 1 .134.134v.397a.132.132 0 1 1-.264 0v-.397a.132.132 0 0 1 .13-.134z"></path>
  </g>
</svg>
